<?xml version="1.0" standalone="no"?>
<!DOCTYPE svg PUBLIC "-//W3C//DTD SVG 20010904//EN"
 "http://www.w3.org/TR/2001/REC-SVG-20010904/DTD/svg10.dtd">
<svg version="1.0" xmlns="http://www.w3.org/2000/svg"
 width="500.000000pt" height="500.000000pt" viewBox="0 0 500.000000 500.000000"
 preserveAspectRatio="xMidYMid meet">
<metadata>
Created by potrace 1.14, written by Peter Selinger 2001-2017
</metadata>
<g transform="translate(0.000000,500.000000) scale(0.100000,-0.100000)"
fill="#000000" stroke="none">
<path d="M2215 4581 c-323 -189 -984 -570 -1040 -601 -22 -12 -60 -34 -85 -50
-48 -29 -379 -220 -441 -253 -21 -11 -49 -29 -63 -41 l-27 -21 1 -400 0 -400
27 -22 c16 -13 31 -23 34 -23 8 0 331 -189 344 -201 5 -6 5 -9 -2 -9 -6 0 -66
-32 -134 -72 -68 -39 -152 -87 -185 -105 -34 -18 -67 -39 -73 -47 -8 -9 -10
-146 -9 -485 l3 -472 409 -236 c355 -205 411 -235 428 -224 38 24 299 172 311
177 9 3 12 -42 12 -193 l0 -198 195 -113 c107 -63 224 -130 260 -149 36 -20
72 -42 81 -49 8 -8 19 -14 23 -14 4 0 30 -15 59 -33 29 -18 75 -45 104 -60
l52 -28 40 23 c36 20 241 139 387 223 28 17 117 68 198 115 l146 84 0 238 c0
131 4 238 8 238 4 0 12 -4 18 -9 5 -5 36 -25 69 -44 33 -18 115 -66 182 -105
120 -70 149 -81 169 -63 5 5 25 18 44 29 19 10 105 60 190 109 85 50 200 116
255 148 55 31 129 75 165 96 l65 38 0 1122 0 1122 -75 45 c-41 24 -100 58
-130 75 -30 16 -71 40 -90 52 -19 12 -56 34 -82 48 -112 63 -143 80 -250 143
-62 37 -129 76 -149 87 l-36 19 -174 -101 -174 -101 -3 203 -2 203 -384 222
c-212 122 -388 222 -393 221 -4 -1 -129 -72 -278 -158z"/>
</g>
</svg>
