<?xml version="1.0" standalone="no"?>
<!DOCTYPE svg PUBLIC "-//W3C//DTD SVG 20010904//EN"
 "http://www.w3.org/TR/2001/REC-SVG-20010904/DTD/svg10.dtd">
<svg version="1.0" xmlns="http://www.w3.org/2000/svg"
 width="1000.000000pt" height="1000.000000pt" viewBox="0 0 1000.000000 1000.000000"
 preserveAspectRatio="xMidYMid meet">
<metadata>
Created by potrace 1.14, written by Peter Selinger 2001-2017
</metadata>
<g transform="translate(0.000000,1000.000000) scale(0.100000,-0.100000)"
fill="#000000" stroke="none">
<path d="M4738 9995 c-2 -2 -43 -6 -93 -9 -49 -4 -110 -9 -135 -12 -101 -11
-136 -15 -165 -19 -56 -8 -190 -27 -205 -30 -8 -1 -35 -6 -60 -10 -58 -10 -60
-10 -162 -34 -47 -11 -99 -23 -115 -26 -15 -2 -75 -19 -133 -35 -58 -17 -112
-33 -120 -35 -90 -24 -406 -138 -498 -181 -29 -13 -55 -24 -58 -24 -14 0 -347
-167 -443 -222 -163 -93 -375 -228 -456 -290 -5 -4 -53 -39 -105 -78 -267
-199 -543 -457 -770 -720 -36 -41 -67 -77 -70 -80 -54 -49 -390 -523 -390
-549 0 -5 -4 -11 -9 -13 -12 -4 -117 -188 -204 -358 -110 -216 -211 -454 -285
-677 -34 -99 -108 -352 -116 -393 -2 -14 -11 -54 -20 -90 -8 -36 -17 -77 -20
-93 -3 -15 -7 -35 -10 -45 -3 -9 -7 -33 -10 -52 -3 -19 -12 -73 -20 -120 -14
-83 -20 -123 -31 -225 -3 -27 -8 -61 -10 -75 -25 -168 -26 -828 0 -1000 2 -14
6 -47 9 -75 15 -125 17 -136 56 -360 82 -471 303 -1079 552 -1514 231 -404
474 -728 786 -1045 517 -525 1072 -892 1762 -1166 204 -82 694 -224 840 -245
25 -3 52 -8 60 -10 8 -2 29 -7 45 -10 17 -2 39 -7 50 -9 11 -2 45 -7 75 -11
30 -4 62 -9 70 -10 8 -2 51 -6 95 -10 44 -4 88 -9 97 -11 135 -24 727 -24 963
1 162 17 272 31 315 40 13 2 42 7 65 11 59 8 121 21 200 39 39 9 81 19 95 22
94 17 395 109 574 175 1022 375 1916 1101 2494 2022 77 124 82 132 164 281 53
93 178 349 178 362 0 5 7 22 16 38 9 17 31 71 50 120 20 50 39 99 44 110 47
102 151 453 200 675 21 93 24 106 34 163 3 15 10 53 15 85 14 80 22 134 36
252 3 25 7 63 10 85 26 227 26 823 0 988 -2 12 -6 49 -10 82 -9 83 -20 169
-29 210 -2 11 -9 54 -16 95 -13 79 -89 420 -97 433 -2 4 -6 18 -9 32 -8 43
-104 332 -150 453 -391 1011 -1084 1853 -2009 2437 -261 165 -538 305 -815
412 -63 24 -124 48 -135 53 -11 5 -51 18 -90 30 -38 12 -79 26 -90 31 -69 32
-528 144 -670 164 -11 2 -33 6 -50 8 -37 7 -96 15 -155 22 -25 3 -56 7 -70 10
-14 2 -56 7 -95 11 -38 3 -90 8 -115 10 -52 5 -627 13 -632 9z"/>
</g>
</svg>
