<svg width="644" height="706" viewBox="0 0 644 706" fill="none" xmlns="http://www.w3.org/2000/svg">
<path d="M128.812 461.085L129.363 461.069C138.307 461.113 145.546 468.43 145.554 477.359C145.499 486.249 138.286 493.461 129.366 493.523L128.815 493.539C119.831 493.56 112.564 486.361 112.543 477.379C112.522 468.396 119.722 461.131 128.707 461.11C128.695 461.057 128.759 461.098 128.812 461.085Z" fill="#7491B3" fill-opacity="0.56"/>
<path d="M193.182 461.096L193.733 461.079C202.677 461.123 209.916 468.44 209.924 477.369C209.869 486.259 202.656 493.471 193.736 493.533L193.185 493.549C184.201 493.57 176.934 486.371 176.913 477.389C176.892 468.406 184.092 461.141 193.077 461.12C193.065 461.067 193.129 461.108 193.182 461.096Z" fill="#7491B3" fill-opacity="0.56"/>
<path d="M257.499 461.118L258.051 461.102C267.035 461.081 274.302 468.28 274.323 477.262C274.344 486.245 267.143 493.51 258.159 493.531C258.106 493.543 258.054 493.555 258.041 493.503L257.49 493.519C248.546 493.475 241.308 486.159 241.299 477.229C241.355 468.34 248.568 461.127 257.499 461.118Z" fill="#7491B3" fill-opacity="0.56"/>
<path d="M321.817 461.14L322.368 461.124C331.352 461.103 338.619 468.302 338.64 477.284C338.661 486.267 331.461 493.532 322.476 493.553C322.424 493.565 322.371 493.578 322.359 493.525L321.808 493.541C312.864 493.497 305.625 486.181 305.616 477.251C305.672 468.362 312.885 461.149 321.817 461.14Z" fill="#7491B3" fill-opacity="0.56"/>
<path d="M386.187 461.15L386.738 461.134C395.682 461.178 402.92 468.494 402.929 477.424C402.873 486.313 395.661 493.526 386.741 493.588L386.19 493.604C377.205 493.625 369.939 486.426 369.917 477.444C369.896 468.461 377.097 461.196 386.081 461.175C386.069 461.122 386.134 461.163 386.187 461.15Z" fill="#7491B3" fill-opacity="0.56"/>
<path d="M450.504 461.173L451.055 461.156C460.04 461.135 467.307 468.334 467.328 477.317C467.349 486.299 460.148 493.565 451.164 493.586C451.111 493.598 451.058 493.61 451.046 493.557L450.495 493.574C441.551 493.53 434.313 486.213 434.304 477.284C434.36 468.394 441.572 461.182 450.504 461.173Z" fill="#7491B3" fill-opacity="0.56"/>
<path d="M514.874 461.183L515.425 461.167C524.369 461.21 531.608 468.527 531.617 477.457C531.561 486.346 524.348 493.559 515.428 493.62L514.877 493.636C505.893 493.658 498.626 486.458 498.605 477.476C498.584 468.494 505.784 461.228 514.769 461.207C514.757 461.155 514.822 461.195 514.874 461.183Z" fill="#7491B3" fill-opacity="0.56"/>
<path d="M128.822 398.893L129.374 398.877C138.317 398.92 145.556 406.237 145.565 415.167C145.509 424.056 138.296 431.269 129.377 431.33L128.825 431.346C119.841 431.368 112.574 424.168 112.553 415.186C112.532 406.203 119.733 398.938 128.717 398.917C128.705 398.864 128.77 398.905 128.822 398.893Z" fill="#7491B3" fill-opacity="0.56"/>
<path d="M193.192 398.903L193.744 398.887C202.687 398.93 209.926 406.247 209.935 415.177C209.879 424.066 202.666 431.279 193.747 431.34L193.195 431.357C184.211 431.378 176.944 424.179 176.923 415.196C176.902 406.214 184.103 398.948 193.087 398.927C193.075 398.875 193.14 398.915 193.192 398.903Z" fill="#7491B3" fill-opacity="0.56"/>
<path d="M257.51 398.925L258.061 398.909C267.045 398.888 274.312 406.087 274.333 415.07C274.354 424.052 267.154 431.317 258.169 431.338C258.117 431.351 258.064 431.363 258.052 431.31L257.501 431.326C248.557 431.283 241.318 423.966 241.309 415.036C241.365 406.147 248.578 398.934 257.51 398.925Z" fill="#7491B3" fill-opacity="0.56"/>
<path d="M321.839 399L322.39 398.984C331.334 399.028 338.573 406.344 338.582 415.274C338.526 424.163 331.313 431.376 322.393 431.438L321.842 431.454C312.858 431.475 305.591 424.276 305.57 415.293C305.549 406.311 312.75 399.046 321.734 399.025C321.722 398.972 321.787 399.012 321.839 399Z" fill="#7491B3" fill-opacity="0.56"/>
<path d="M386.209 399.01L386.76 398.994C395.745 398.973 403.012 406.172 403.033 415.155C403.054 424.137 395.853 431.402 386.869 431.423C386.816 431.436 386.764 431.448 386.751 431.395L386.2 431.411C377.256 431.368 370.018 424.051 370.009 415.121C370.065 406.232 377.278 399.019 386.209 399.01Z" fill="#7491B3" fill-opacity="0.56"/>
<path d="M450.527 399.033L451.078 399.016C460.022 399.06 467.26 406.377 467.269 415.307C467.213 424.196 460 431.409 451.081 431.47L450.53 431.486C441.545 431.507 434.278 424.308 434.257 415.326C434.236 406.343 441.437 399.078 450.421 399.057C450.409 399.004 450.474 399.045 450.527 399.033Z" fill="#7491B3" fill-opacity="0.56"/>
<path d="M514.897 399.043L515.448 399.027C524.392 399.07 531.63 406.387 531.639 415.317C531.583 424.206 524.37 431.419 515.451 431.48L514.9 431.497C505.915 431.518 498.648 424.319 498.627 415.336C498.606 406.354 505.807 399.088 514.791 399.067C514.779 399.015 514.844 399.055 514.897 399.043Z" fill="#7491B3" fill-opacity="0.56"/>
<path d="M128.845 336.753L129.396 336.737C138.34 336.78 145.578 344.097 145.587 353.027C145.531 361.916 138.319 369.129 129.399 369.19L128.848 369.206C119.864 369.228 112.597 362.028 112.576 353.046C112.555 344.064 119.755 336.798 128.74 336.777C128.727 336.724 128.792 336.765 128.845 336.753Z" fill="#7491B3" fill-opacity="0.56"/>
<path d="M193.215 336.763L193.766 336.747C202.71 336.79 209.948 344.107 209.905 353.049C209.849 361.938 202.636 369.151 193.769 369.2L193.218 369.217C184.274 369.173 177.036 361.856 177.027 352.927C177.07 343.985 184.283 336.772 193.215 336.763Z" fill="#7491B3" fill-opacity="0.56"/>
<path d="M257.532 336.785L258.083 336.769C267.027 336.813 274.266 344.129 274.275 353.059C274.219 361.948 267.018 369.214 258.087 369.223L257.535 369.239C248.591 369.195 241.353 361.879 241.344 352.949C241.388 344.007 248.601 336.794 257.532 336.785Z" fill="#7491B3" fill-opacity="0.56"/>
<path d="M321.902 336.796L322.453 336.779C331.438 336.758 338.705 343.957 338.726 352.94C338.747 361.922 331.546 369.187 322.562 369.209C322.509 369.221 322.457 369.233 322.444 369.18L321.893 369.196C312.949 369.153 305.711 361.836 305.702 352.906C305.758 344.017 312.971 336.804 321.902 336.796Z" fill="#7491B3" fill-opacity="0.56"/>
<path d="M386.22 336.818L386.771 336.802C395.715 336.845 402.953 344.162 402.962 353.092C402.906 361.981 395.693 369.194 386.774 369.255L386.223 369.271C377.238 369.292 369.972 362.093 369.95 353.111C369.929 344.128 377.13 336.863 386.114 336.842C386.102 336.789 386.167 336.83 386.22 336.818Z" fill="#7491B3" fill-opacity="0.56"/>
<path d="M450.537 336.84L451.088 336.824C460.032 336.868 467.271 344.184 467.279 353.114C467.224 362.003 460.011 369.216 451.091 369.277L450.54 369.294C441.556 369.315 434.289 362.116 434.268 353.133C434.247 344.151 441.447 336.886 450.432 336.864C450.42 336.812 450.484 336.852 450.537 336.84Z" fill="#7491B3" fill-opacity="0.56"/>
<path d="M514.919 336.903L515.47 336.887C524.414 336.93 531.653 344.247 531.662 353.177C531.606 362.066 524.393 369.279 515.473 369.34L514.922 369.357C505.938 369.378 498.671 362.179 498.65 353.196C498.629 344.214 505.829 336.948 514.814 336.927C514.802 336.875 514.867 336.915 514.919 336.903Z" fill="#7491B3" fill-opacity="0.56"/>
<path d="M128.779 585.418L129.33 585.402C138.274 585.446 145.513 592.762 145.522 601.692C145.466 610.581 138.253 617.794 129.333 617.855L128.782 617.872C119.798 617.893 112.519 610.641 112.457 601.723C112.396 592.806 119.637 585.476 128.621 585.455C128.662 585.39 128.726 585.43 128.779 585.418Z" fill="#7491B3" fill-opacity="0.56"/>
<path d="M193.097 585.44L193.648 585.424C202.592 585.468 209.83 592.784 209.839 601.714C209.783 610.604 202.57 617.816 193.651 617.878L193.1 617.894C184.115 617.915 176.848 610.716 176.827 601.734C176.806 592.751 184.007 585.486 192.991 585.465C192.979 585.412 193.044 585.453 193.097 585.44Z" fill="#7491B3" fill-opacity="0.56"/>
<path d="M257.467 585.45L258.018 585.434C266.962 585.478 274.2 592.794 274.209 601.724C274.153 610.614 266.94 617.826 258.021 617.888L257.47 617.904C248.485 617.925 241.218 610.726 241.197 601.744C241.176 592.761 248.377 585.496 257.361 585.475C257.349 585.422 257.414 585.463 257.467 585.45Z" fill="#7491B3" fill-opacity="0.56"/>
<path d="M321.784 585.473L322.335 585.457C331.279 585.5 338.558 592.752 338.526 601.747C338.483 610.689 331.27 617.901 322.338 617.91L321.787 617.926C312.802 617.947 305.536 610.748 305.515 601.766C305.493 592.783 312.694 585.518 321.678 585.497C321.666 585.444 321.731 585.485 321.784 585.473Z" fill="#7491B3" fill-opacity="0.56"/>
<path d="M386.154 585.483L386.705 585.467C395.689 585.446 402.956 592.645 402.977 601.627C402.998 610.61 395.798 617.875 386.813 617.896C386.761 617.908 386.708 617.92 386.696 617.868L386.145 617.884C377.201 617.84 369.962 610.523 369.953 601.594C370.009 592.704 377.222 585.492 386.154 585.483Z" fill="#7491B3" fill-opacity="0.56"/>
<path d="M450.471 585.505L451.022 585.489C460.007 585.468 467.274 592.667 467.295 601.65C467.316 610.632 460.115 617.897 451.131 617.918C451.078 617.931 451.025 617.943 451.013 617.89L450.462 617.906C441.518 617.863 434.28 610.546 434.271 601.616C434.327 592.727 441.54 585.514 450.471 585.505Z" fill="#7491B3" fill-opacity="0.56"/>
<path d="M514.789 585.528L515.34 585.511C524.324 585.49 531.591 592.689 531.612 601.672C531.633 610.654 524.433 617.919 515.448 617.941C515.395 617.953 515.343 617.965 515.331 617.912L514.779 617.929C505.836 617.885 498.597 610.568 498.588 601.638C498.644 592.749 505.857 585.537 514.789 585.528Z" fill="#7491B3" fill-opacity="0.56"/>
<path d="M128.79 523.225L129.341 523.209C138.285 523.253 145.523 530.569 145.532 539.499C145.476 548.389 138.263 555.601 129.344 555.663L128.793 555.679C119.808 555.7 112.541 548.501 112.52 539.519C112.499 530.536 119.7 523.271 128.684 523.25C128.672 523.197 128.737 523.238 128.79 523.225Z" fill="#7491B3" fill-opacity="0.56"/>
<path d="M193.107 523.248L193.658 523.231C202.602 523.275 209.84 530.592 209.849 539.522C209.793 548.411 202.581 555.623 193.661 555.685L193.11 555.701C184.125 555.722 176.859 548.523 176.838 539.541C176.816 530.558 184.017 523.293 193.001 523.272C192.989 523.219 193.054 523.26 193.107 523.248Z" fill="#7491B3" fill-opacity="0.56"/>
<path d="M257.477 523.258L258.028 523.242C266.972 523.285 274.21 530.602 274.219 539.532C274.163 548.421 266.951 555.634 258.031 555.695L257.48 555.711C248.496 555.733 241.229 548.533 241.208 539.551C241.187 530.569 248.387 523.303 257.372 523.282C257.359 523.23 257.424 523.27 257.477 523.258Z" fill="#7491B3" fill-opacity="0.56"/>
<path d="M321.794 523.28L322.345 523.264C331.33 523.243 338.597 530.442 338.618 539.424C338.639 548.407 331.438 555.672 322.454 555.693C322.401 555.705 322.348 555.718 322.336 555.665L321.785 555.681C312.841 555.637 305.603 548.321 305.594 539.391C305.65 530.502 312.862 523.289 321.794 523.28Z" fill="#7491B3" fill-opacity="0.56"/>
<path d="M386.176 523.343L386.728 523.327C395.712 523.306 402.979 530.505 403 539.487C403.021 548.47 395.82 555.735 386.836 555.756C386.783 555.768 386.731 555.78 386.718 555.728L386.167 555.744C377.183 555.765 369.916 548.566 369.895 539.584C369.874 530.601 377.074 523.336 386.059 523.315C386.059 523.315 386.124 523.355 386.176 523.343Z" fill="#7491B3" fill-opacity="0.56"/>
<path d="M450.494 523.365L451.045 523.349C460.029 523.328 467.296 530.527 467.317 539.51C467.338 548.492 460.138 555.757 451.153 555.778C451.101 555.791 451.048 555.803 451.036 555.75L450.485 555.766C441.541 555.723 434.302 548.406 434.293 539.476C434.349 530.587 441.562 523.374 450.494 523.365Z" fill="#7491B3" fill-opacity="0.56"/>
<path d="M514.811 523.388L515.362 523.371C524.347 523.35 531.614 530.549 531.635 539.532C531.656 548.514 524.455 555.78 515.471 555.801C515.418 555.813 515.365 555.825 515.353 555.772L514.802 555.789C505.858 555.745 498.62 548.428 498.611 539.498C498.667 530.609 505.879 523.397 514.811 523.388Z" fill="#7491B3" fill-opacity="0.56"/>
<path d="M128.931 212.408L129.482 212.392C138.426 212.436 145.664 219.752 145.673 228.682C145.617 237.571 138.404 244.784 129.485 244.845L128.934 244.862C119.949 244.883 112.682 237.684 112.661 228.701C112.64 219.719 119.841 212.454 128.825 212.432C128.813 212.38 128.878 212.42 128.931 212.408Z" fill="#7491B3" fill-opacity="0.56"/>
<path d="M193.248 212.43L193.799 212.414C202.783 212.393 210.05 219.592 210.071 228.575C210.092 237.557 202.892 244.822 193.907 244.843C193.855 244.856 193.802 244.868 193.79 244.815L193.239 244.831C184.295 244.788 177.056 237.471 177.047 228.541C177.103 219.652 184.316 212.439 193.248 212.43Z" fill="#7491B3" fill-opacity="0.56"/>
<path d="M257.565 212.453L258.116 212.436C267.06 212.48 274.299 219.797 274.308 228.727C274.252 237.616 267.039 244.828 258.119 244.89L257.568 244.906C248.584 244.927 241.317 237.728 241.296 228.746C241.275 219.763 248.475 212.498 257.46 212.477C257.448 212.424 257.513 212.465 257.565 212.453Z" fill="#7491B3" fill-opacity="0.56"/>
<path d="M321.935 212.463L322.486 212.447C331.43 212.49 338.669 219.807 338.678 228.737C338.622 237.626 331.409 244.839 322.489 244.9L321.938 244.917C312.954 244.938 305.687 237.739 305.666 228.756C305.645 219.774 312.845 212.508 321.83 212.487C321.818 212.435 321.883 212.475 321.935 212.463Z" fill="#7491B3" fill-opacity="0.56"/>
<path d="M386.253 212.485L386.804 212.469C395.748 212.513 402.986 219.829 402.995 228.759C402.939 237.648 395.726 244.861 386.807 244.923L386.256 244.939C377.271 244.96 370.004 237.761 369.983 228.778C369.962 219.796 377.163 212.531 386.147 212.51C386.135 212.457 386.2 212.497 386.253 212.485Z" fill="#7491B3" fill-opacity="0.56"/>
<path d="M450.635 212.548L451.186 212.532C460.13 212.576 467.368 219.892 467.377 228.822C467.321 237.711 460.109 244.924 451.189 244.985L450.638 245.002C441.653 245.023 434.387 237.824 434.366 228.841C434.344 219.859 441.545 212.593 450.529 212.572C450.517 212.52 450.582 212.56 450.635 212.548Z" fill="#7491B3" fill-opacity="0.56"/>
<path d="M514.952 212.57L515.503 212.554C524.447 212.598 531.686 219.914 531.695 228.844C531.639 237.734 524.426 244.946 515.506 245.008L514.955 245.024C505.971 245.045 498.704 237.846 498.683 228.864C498.662 219.881 505.862 212.616 514.847 212.595C514.835 212.542 514.899 212.583 514.952 212.57Z" fill="#7491B3" fill-opacity="0.56"/>
<path d="M128.845 336.753L129.396 336.737C138.34 336.78 145.578 344.097 145.587 353.027C145.531 361.916 138.319 369.129 129.399 369.19L128.848 369.206C119.864 369.228 112.597 362.028 112.576 353.046C112.555 344.064 119.755 336.798 128.74 336.777C128.727 336.724 128.792 336.765 128.845 336.753Z" fill="#7491B3" fill-opacity="0.56"/>
<path d="M193.215 336.763L193.766 336.747C202.71 336.79 209.948 344.107 209.905 353.049C209.849 361.938 202.636 369.151 193.769 369.2L193.218 369.217C184.274 369.173 177.036 361.856 177.027 352.927C177.07 343.985 184.283 336.772 193.215 336.763Z" fill="#7491B3" fill-opacity="0.56"/>
<path d="M257.532 336.785L258.083 336.769C267.027 336.813 274.266 344.129 274.275 353.059C274.219 361.948 267.018 369.214 258.087 369.223L257.535 369.239C248.591 369.195 241.353 361.879 241.344 352.949C241.388 344.007 248.601 336.794 257.532 336.785Z" fill="#7491B3" fill-opacity="0.56"/>
<path d="M321.902 336.796L322.453 336.779C331.438 336.758 338.705 343.957 338.726 352.94C338.747 361.922 331.546 369.187 322.562 369.209C322.509 369.221 322.457 369.233 322.444 369.18L321.893 369.196C312.949 369.153 305.711 361.836 305.702 352.906C305.758 344.017 312.971 336.804 321.902 336.796Z" fill="#7491B3" fill-opacity="0.56"/>
<path d="M386.22 336.818L386.771 336.802C395.715 336.845 402.953 344.162 402.962 353.092C402.906 361.981 395.693 369.194 386.774 369.255L386.223 369.271C377.238 369.292 369.972 362.093 369.95 353.111C369.929 344.128 377.13 336.863 386.114 336.842C386.102 336.789 386.167 336.83 386.22 336.818Z" fill="#7491B3" fill-opacity="0.56"/>
<path d="M450.537 336.84L451.088 336.824C460.032 336.868 467.271 344.184 467.279 353.114C467.224 362.003 460.011 369.216 451.091 369.277L450.54 369.294C441.556 369.315 434.289 362.116 434.268 353.133C434.247 344.151 441.447 336.886 450.432 336.864C450.42 336.812 450.484 336.852 450.537 336.84Z" fill="#7491B3" fill-opacity="0.56"/>
<path d="M514.919 336.903L515.47 336.887C524.414 336.93 531.653 344.247 531.662 353.177C531.606 362.066 524.393 369.279 515.473 369.34L514.922 369.357C505.938 369.378 498.671 362.179 498.65 353.196C498.629 344.214 505.829 336.948 514.814 336.927C514.802 336.875 514.867 336.915 514.919 336.903Z" fill="#7491B3" fill-opacity="0.56"/>
<path d="M128.855 274.56L129.406 274.544C138.391 274.523 145.658 281.722 145.679 290.704C145.7 299.687 138.499 306.952 129.515 306.973C129.462 306.985 129.41 306.998 129.397 306.945L128.846 306.961C119.902 306.917 112.664 299.601 112.655 290.671C112.711 281.782 119.924 274.569 128.855 274.56Z" fill="#7491B3" fill-opacity="0.56"/>
<path d="M193.238 274.623L193.789 274.607C202.733 274.651 209.971 281.967 209.98 290.897C209.924 299.786 202.711 306.999 193.792 307.06L193.241 307.077C184.256 307.098 176.989 299.899 176.968 290.916C176.947 281.934 184.148 274.668 193.132 274.647C193.12 274.595 193.185 274.635 193.238 274.623Z" fill="#7491B3" fill-opacity="0.56"/>
<path d="M257.555 274.645L258.106 274.629C267.09 274.608 274.357 281.807 274.378 290.79C274.399 299.772 267.199 307.037 258.214 307.058C258.162 307.071 258.109 307.083 258.097 307.03L257.546 307.046C248.602 307.003 241.363 299.686 241.354 290.756C241.41 281.867 248.623 274.654 257.555 274.645Z" fill="#7491B3" fill-opacity="0.56"/>
<path d="M321.925 274.656L322.476 274.639C331.42 274.683 338.658 282 338.667 290.929C338.611 299.819 331.399 307.031 322.479 307.093L321.928 307.109C312.944 307.13 305.677 299.931 305.656 290.949C305.634 281.966 312.835 274.701 321.82 274.68C321.807 274.627 321.872 274.668 321.925 274.656Z" fill="#7491B3" fill-opacity="0.56"/>
<path d="M386.242 274.678L386.793 274.662C395.737 274.705 402.976 282.022 402.985 290.952C402.929 299.841 395.716 307.054 386.796 307.115L386.245 307.131C377.261 307.153 369.994 299.953 369.973 290.971C369.952 281.989 377.152 274.723 386.137 274.702C386.125 274.65 386.19 274.69 386.242 274.678Z" fill="#7491B3" fill-opacity="0.56"/>
<path d="M450.56 274.7L451.111 274.684C460.055 274.728 467.293 282.044 467.302 290.974C467.246 299.863 460.033 307.076 451.114 307.138L450.563 307.154C441.578 307.175 434.311 299.976 434.29 290.993C434.269 282.011 441.47 274.746 450.454 274.724C450.442 274.672 450.507 274.712 450.56 274.7Z" fill="#7491B3" fill-opacity="0.56"/>
<path d="M514.93 274.71L515.481 274.694C524.425 274.738 531.663 282.054 531.619 290.996C531.563 299.886 524.351 307.098 515.484 307.148L514.933 307.164C505.948 307.185 498.681 299.986 498.66 291.004C498.639 282.021 505.84 274.756 514.824 274.735C514.812 274.682 514.877 274.722 514.93 274.71Z" fill="#7491B3" fill-opacity="0.56"/>
<path d="M128.953 150.268L129.504 150.252C138.489 150.231 145.755 157.43 145.777 166.412C145.798 175.395 138.597 182.66 129.613 182.681C129.56 182.693 129.507 182.706 129.495 182.653L128.944 182.669C120 182.625 112.762 175.309 112.753 166.379C112.809 157.49 120.021 150.277 128.953 150.268Z" fill="#7491B3" fill-opacity="0.56"/>
<path d="M193.27 150.29L193.821 150.274C202.765 150.318 210.004 157.635 210.013 166.564C209.957 175.454 202.744 182.666 193.825 182.728L193.273 182.744C184.289 182.765 177.022 175.566 177.001 166.584C176.98 157.601 184.181 150.336 193.165 150.315C193.153 150.262 193.218 150.303 193.27 150.29Z" fill="#7491B3" fill-opacity="0.56"/>
<path d="M257.588 150.313L258.139 150.297C267.083 150.34 274.321 157.657 274.33 166.587C274.274 175.476 267.062 182.689 258.142 182.75L257.591 182.766C248.606 182.787 241.34 175.588 241.318 166.606C241.297 157.623 248.498 150.358 257.482 150.337C257.47 150.284 257.535 150.325 257.588 150.313Z" fill="#7491B3" fill-opacity="0.56"/>
<path d="M321.958 150.323L322.509 150.307C331.453 150.35 338.691 157.667 338.7 166.597C338.644 175.486 331.432 182.699 322.512 182.76L321.961 182.777C312.976 182.798 305.71 175.599 305.688 166.616C305.667 157.634 312.868 150.368 321.852 150.347C321.84 150.295 321.905 150.335 321.958 150.323Z" fill="#7491B3" fill-opacity="0.56"/>
<path d="M386.275 150.345L386.826 150.329C395.77 150.373 403.009 157.689 402.965 166.631C402.909 175.521 395.696 182.733 386.829 182.783L386.278 182.799C377.294 182.82 370.027 175.621 370.006 166.638C369.985 157.656 377.185 150.391 386.17 150.37C386.158 150.317 386.222 150.357 386.275 150.345Z" fill="#7491B3" fill-opacity="0.56"/>
<path d="M450.645 150.355L451.196 150.339C460.14 150.383 467.379 157.699 467.388 166.629C467.332 175.519 460.119 182.731 451.199 182.793L450.648 182.809C441.664 182.83 434.397 175.631 434.376 166.649C434.355 157.666 441.555 150.401 450.54 150.38C450.528 150.327 450.592 150.368 450.645 150.355Z" fill="#7491B3" fill-opacity="0.56"/>
<path d="M514.962 150.378L515.514 150.362C524.498 150.34 531.765 157.539 531.786 166.522C531.807 175.504 524.606 182.77 515.622 182.791C515.569 182.803 515.517 182.815 515.505 182.762L514.953 182.779C506.009 182.735 498.771 175.418 498.762 166.489C498.818 157.599 506.031 150.387 514.962 150.378Z" fill="#7491B3" fill-opacity="0.56"/>
<path d="M128.963 88.0755L129.515 88.0593C138.458 88.103 145.697 95.4196 145.706 104.349C145.65 113.239 138.437 120.451 129.518 120.513L128.966 120.529C119.982 120.55 112.715 113.351 112.694 104.369C112.673 95.3862 119.874 88.1209 128.858 88.0998C128.846 88.0472 128.911 88.0877 128.963 88.0755Z" fill="#7491B3" fill-opacity="0.56"/>
<path d="M193.281 88.0979L193.832 88.0816C202.776 88.1253 210.014 95.4419 210.023 104.372C209.967 113.261 202.754 120.474 193.835 120.535L193.284 120.551C184.299 120.573 177.033 113.373 177.011 104.391C176.99 95.4085 184.191 88.1433 193.175 88.1222C193.163 88.0695 193.228 88.11 193.281 88.0979Z" fill="#7491B3" fill-opacity="0.56"/>
<path d="M257.651 88.108L258.202 88.0918C267.146 88.1355 274.384 95.4521 274.393 104.382C274.337 113.271 267.125 120.484 258.205 120.545L257.654 120.562C248.669 120.583 241.403 113.384 241.382 104.401C241.36 95.4187 248.561 88.1534 257.545 88.1323C257.533 88.0797 257.598 88.1202 257.651 88.108Z" fill="#7491B3" fill-opacity="0.56"/>
<path d="M321.968 88.1303L322.519 88.114C331.463 88.1578 338.702 95.4744 338.711 104.404C338.655 113.293 331.442 120.506 322.522 120.568L321.971 120.584C312.987 120.605 305.72 113.406 305.699 104.423C305.678 95.441 312.878 88.1757 321.863 88.1546C321.851 88.1019 321.915 88.1425 321.968 88.1303Z" fill="#7491B3" fill-opacity="0.56"/>
<path d="M386.298 88.2053L386.849 88.1891C395.793 88.2328 403.031 95.5493 403.04 104.479C402.984 113.368 395.771 120.581 386.852 120.643L386.301 120.659C377.316 120.68 370.049 113.481 370.028 104.498C370.007 95.516 377.208 88.2507 386.192 88.2296C386.18 88.177 386.245 88.2175 386.298 88.2053Z" fill="#7491B3" fill-opacity="0.56"/>
<path d="M450.668 88.2155L451.219 88.1992C460.203 88.1781 467.47 95.3772 467.491 104.36C467.512 113.342 460.312 120.607 451.327 120.629C451.275 120.641 451.222 120.653 451.21 120.6L450.659 120.616C441.715 120.573 434.476 113.256 434.467 104.326C434.523 95.437 441.736 88.2244 450.668 88.2155Z" fill="#7491B3" fill-opacity="0.56"/>
<path d="M514.985 88.2378L515.536 88.2215C524.521 88.2004 531.787 95.3995 531.808 104.382C531.83 113.364 524.629 120.63 515.645 120.651C515.592 120.663 515.539 120.675 515.527 120.622L514.976 120.639C506.032 120.595 498.794 113.278 498.785 104.349C498.84 95.4593 506.053 88.2467 514.985 88.2378Z" fill="#7491B3" fill-opacity="0.56"/>
</svg>
