<svg xmlns="http://www.w3.org/2000/svg" xmlns:xlink="http://www.w3.org/1999/xlink" width="500" zoomAndPan="magnify" viewBox="0 0 375 374.999991" height="500" preserveAspectRatio="xMidYMid meet" version="1.0"><defs><clipPath id="7fe89c3313"><path d="M 41.824219 19.089844 L 246 19.089844 L 246 188 L 41.824219 188 Z M 41.824219 19.089844 " clip-rule="nonzero"/></clipPath><clipPath id="c054fae4f3"><path d="M 41.824219 182 L 130 182 L 130 236 L 41.824219 236 Z M 41.824219 182 " clip-rule="nonzero"/></clipPath><clipPath id="0d23bbed16"><path d="M 215 68 L 332.824219 68 L 332.824219 137 L 215 137 Z M 215 68 " clip-rule="nonzero"/></clipPath><clipPath id="90a64fb794"><path d="M 276 103 L 332.824219 103 L 332.824219 305 L 276 305 Z M 276 103 " clip-rule="nonzero"/></clipPath><clipPath id="5b272b4b4e"><path d="M 41.824219 200 L 104 200 L 104 307 L 41.824219 307 Z M 41.824219 200 " clip-rule="nonzero"/></clipPath><clipPath id="b1fbeea032"><path d="M 151 153 L 246 153 L 246 355.839844 L 151 355.839844 Z M 151 153 " clip-rule="nonzero"/></clipPath><clipPath id="4d14012c2a"><path d="M 41.824219 103 L 188 103 L 188 355.839844 L 41.824219 355.839844 Z M 41.824219 103 " clip-rule="nonzero"/></clipPath></defs><path fill="#6c92bd" d="M 103.667969 235.578125 L 103.601562 305.933594 L 103.601562 306.902344 L 129.316406 292.042969 L 129.316406 219.589844 L 103.667969 235.578125 " fill-opacity="1" fill-rule="nonzero"/><g clip-path="url(#7fe89c3313)"><path fill="#9ebcdf" d="M 125.503906 151.734375 L 126.28125 152.183594 L 151.769531 166.910156 L 187.316406 187.453125 L 245.292969 153.949219 L 215.253906 136.589844 L 157.765625 103.367188 L 245.292969 52.789062 L 187.316406 19.285156 L 41.8125 103.367188 L 125.503906 151.734375 " fill-opacity="1" fill-rule="nonzero"/></g><g clip-path="url(#c054fae4f3)"><path fill="#9ebcdf" d="M 103.566406 235.640625 L 103.667969 235.578125 L 129.316406 219.589844 L 129.316406 214.914062 L 72.75 182.21875 L 41.90625 200.042969 L 102.542969 235.050781 C 103.183594 235.421875 103.566406 235.640625 103.566406 235.640625 " fill-opacity="1" fill-rule="nonzero"/></g><path fill="#6c92bd" d="M 215.253906 136.589844 L 215.253906 100.785156 L 245.292969 83.425781 L 245.292969 52.789062 L 157.765625 103.367188 L 215.253906 136.589844 " fill-opacity="1" fill-rule="nonzero"/><path fill="#577a9f" d="M 215.253906 100.785156 L 215.253906 136.589844 L 245.292969 153.949219 L 245.296875 153.949219 L 245.296875 286.382812 L 276.277344 304.285156 L 276.277344 136.046875 L 215.253906 100.785156 " fill-opacity="1" fill-rule="nonzero"/><g clip-path="url(#0d23bbed16)"><path fill="#9ebcdf" d="M 245.292969 83.425781 L 215.253906 100.785156 L 276.277344 136.046875 L 332.820312 103.367188 L 271.800781 68.109375 L 245.292969 83.425781 " fill-opacity="1" fill-rule="nonzero"/></g><g clip-path="url(#90a64fb794)"><path fill="#6c92bd" d="M 276.277344 304.285156 L 332.820312 271.550781 L 332.820312 103.367188 L 276.277344 136.046875 L 276.277344 304.285156 " fill-opacity="1" fill-rule="nonzero"/></g><g clip-path="url(#5b272b4b4e)"><path fill="#abc7e8" d="M 103.601562 305.933594 L 103.566406 235.640625 L 102.542969 235.050781 L 41.90625 200.042969 L 41.9375 271.296875 L 103.601562 306.894531 L 103.601562 305.933594 " fill-opacity="1" fill-rule="nonzero"/></g><g clip-path="url(#b1fbeea032)"><path fill="#6c92bd" d="M 245.292969 153.949219 L 187.316406 187.453125 L 151.769531 166.910156 L 151.769531 166.914062 L 187.316406 187.453125 L 187.316406 355.632812 L 245.296875 322.132812 L 245.296875 153.949219 L 245.292969 153.949219 " fill-opacity="1" fill-rule="nonzero"/></g><g clip-path="url(#4d14012c2a)"><path fill="#abc7e8" d="M 187.316406 187.453125 L 151.769531 166.914062 L 126.28125 152.183594 L 125.503906 151.734375 L 41.8125 103.367188 L 41.8125 164.34375 L 72.75 182.21875 L 129.316406 214.914062 L 129.316406 322.117188 L 187.316406 355.632812 L 187.316406 187.453125 " fill-opacity="1" fill-rule="nonzero"/></g></svg>