<?xml version="1.0" encoding="utf-8"?>
<!-- Generator: Adobe Illustrator 26.4.1, SVG Export Plug-In . SVG Version: 6.00 Build 0)  -->
<svg version="1.1" id="Layer_1" xmlns="http://www.w3.org/2000/svg" xmlns:xlink="http://www.w3.org/1999/xlink" x="0px" y="0px"
	 viewBox="0 0 500 500" style="enable-background:new 0 0 500 500;" xml:space="preserve">
<style type="text/css">
	.st0{fill:#FFFFFF;}
</style>
<g transform="translate(0.000000,500.000000) scale(0.100000,-0.100000)">
	<path class="st0" d="M1480,3859c-96-25-191-69-257-121c-57-43-63-56-35-64c55-16,111-56,172-121c72-77,650-929,650-958
		c0-8-47-95-104-193c-198-339-390-668-531-912c-78-135-151-261-163-280s-22-40-22-47c0-15,612-12,617,3c2,5,122,212,266,459
		c169,289,269,450,279,450c9,0,85-105,188-260c95-143,200-296,233-340c143-192,285-304,437-345c67-19,233-16,310,4
		c124,33,300,133,300,171c0,7-14,16-30,20c-55,12-141,88-227,200c-16,22-311,461-653,975c-343,514-656,978-696,1031
		c-139,183-283,295-430,333C1701,3886,1573,3884,1480,3859z"/>
</g>
<circle class="st0" cx="325.9" cy="148.6" r="36.5"/>
</svg>
